<svg width="23" height="23" viewBox="0 0 23 23" fill="none" xmlns="http://www.w3.org/2000/svg">
  <path d="M8.66522 18.2112H14.3347C13.9658 20.3933 11.3735 21.3574 9.66764 19.9468C9.13614 19.5072 8.78037 18.8912 8.66522 18.2112Z" fill="#333333"/>
  <path d="M18.1875 13.0474V9.10706C18.1875 7.33342 17.4829 5.63243 16.2288 4.37828C14.9746 3.12413 13.2737 2.41956 11.5 2.41956C9.72634 2.41956 8.02543 3.12413 6.77128 4.37828C5.51713 5.63243 4.81256 7.33342 4.81256 9.10706V13.0474L3.41287 16.172C3.38491 16.2345 3.37302 16.303 3.3783 16.3712C3.38357 16.4395 3.40583 16.5053 3.44306 16.5628C3.48029 16.6202 3.5313 16.6675 3.59145 16.7002C3.65157 16.7329 3.71891 16.75 3.78734 16.75H19.2157C19.2158 16.75 19.216 16.75 19.2161 16.75C19.2843 16.7498 19.3514 16.7326 19.4113 16.7C19.4714 16.6673 19.5223 16.6201 19.5595 16.5627C19.5966 16.5053 19.6189 16.4396 19.6242 16.3714C19.6295 16.3033 19.6177 16.235 19.5899 16.1726L18.1875 13.0474Z" fill="#333333"/>
</svg>