<svg width="25" height="24" viewBox="0 0 25 24" fill="none" xmlns="http://www.w3.org/2000/svg">
<path fill-rule="evenodd" clip-rule="evenodd" d="M23 12C23 6.06294 18.1871 1.25 12.25 1.25C6.31294 1.25 1.5 6.06294 1.5 12C1.5 13.7183 1.90371 15.3445 2.62213 16.7869C2.72933 17.0021 2.75208 17.2219 2.7026 17.4068L2.107 19.6328C1.69927 21.1566 3.09337 22.5507 4.6172 22.143L6.84324 21.5474C7.02814 21.4979 7.24791 21.5207 7.46315 21.6279C8.90553 22.3463 10.5317 22.75 12.25 22.75C18.1871 22.75 23 17.9371 23 12ZM12.25 2.75C17.3586 2.75 21.5 6.89137 21.5 12C21.5 17.1086 17.3586 21.25 12.25 21.25C10.7689 21.25 9.37121 20.9025 8.13191 20.2852C7.63451 20.0375 7.03973 19.9421 6.45553 20.0984L4.22949 20.694C3.82066 20.8034 3.44663 20.4293 3.55602 20.0205L4.15163 17.7945C4.30794 17.2103 4.21254 16.6155 3.9648 16.1181C3.34752 14.8788 3 13.4811 3 12C3 6.89137 7.14137 2.75 12.25 2.75Z" fill="currentColor"/>
<path d="M9.5 12C9.5 12.5523 9.05228 13 8.5 13C7.94772 13 7.5 12.5523 7.5 12C7.5 11.4477 7.94772 11 8.5 11C9.05228 11 9.5 11.4477 9.5 12Z" fill="#9E9E9E"/>
<path d="M13.5 12C13.5 12.5523 13.0523 13 12.5 13C11.9477 13 11.5 12.5523 11.5 12C11.5 11.4477 11.9477 11 12.5 11C13.0523 11 13.5 11.4477 13.5 12Z" fill="#9E9E9E"/>
<path d="M17.5 12C17.5 12.5523 17.0523 13 16.5 13C15.9477 13 15.5 12.5523 15.5 12C15.5 11.4477 15.9477 11 16.5 11C17.0523 11 17.5 11.4477 17.5 12Z" fill="#9E9E9E"/>
</svg>
