<svg width="48" height="48" viewBox="0 0 48 48" fill="none" xmlns="http://www.w3.org/2000/svg">
<circle cx="24" cy="24" r="24" fill="#39CCCC"/>
<path d="M24.24 38.108C22.896 38.108 21.54 37.976 20.172 37.712C18.828 37.424 17.58 37.016 16.428 36.488C15.3 35.936 14.388 35.276 13.692 34.508C12.996 33.716 12.648 32.804 12.648 31.772C12.648 30.452 13.068 29.396 13.908 28.604C14.748 27.812 15.732 27.44 16.86 27.488C17.748 27.512 18.636 27.704 19.524 28.064C20.412 28.4 21.312 28.736 22.224 29.072C23.16 29.408 24.096 29.576 25.032 29.576C25.968 29.576 26.616 29.456 26.976 29.216C27.336 28.976 27.516 28.652 27.516 28.244C27.516 27.764 27.264 27.368 26.76 27.056C26.256 26.744 25.62 26.504 24.852 26.336L23.088 25.904C21.264 25.472 19.632 24.992 18.192 24.464C16.752 23.912 15.612 23.192 14.772 22.304C13.956 21.392 13.548 20.18 13.548 18.668C13.548 17.012 14.004 15.668 14.916 14.636C15.828 13.58 17.064 12.812 18.624 12.332C20.184 11.852 21.924 11.612 23.844 11.612C25.812 11.612 27.54 11.816 29.028 12.224C30.516 12.632 31.668 13.22 32.484 13.988C33.324 14.756 33.744 15.692 33.744 16.796C33.744 17.972 33.42 18.896 32.772 19.568C32.148 20.216 31.308 20.54 30.252 20.54C29.556 20.54 28.824 20.42 28.056 20.18C27.312 19.94 26.52 19.712 25.68 19.496C24.864 19.256 23.988 19.136 23.052 19.136C22.212 19.136 21.576 19.268 21.144 19.532C20.712 19.772 20.496 20.096 20.496 20.504C20.496 21.008 20.784 21.38 21.36 21.62C21.936 21.86 22.884 22.148 24.204 22.484L26.22 22.952C27.876 23.36 29.328 23.852 30.576 24.428C31.824 25.004 32.796 25.76 33.492 26.696C34.188 27.632 34.536 28.856 34.536 30.368C34.536 32.192 34.104 33.68 33.24 34.832C32.376 35.96 31.176 36.788 29.64 37.316C28.104 37.844 26.304 38.108 24.24 38.108Z" fill="white"/>
</svg>
