<svg width="25" height="25" viewBox="0 0 25 25" fill="none" xmlns="http://www.w3.org/2000/svg">
<path d="M24.5 15.4C24.5 12.6 23 10.4 20.8 9.3C21.8 8.3 22.5 7 22.5 5.5C22.5 2.7 20.3 0.5 17.5 0.5C15.4 0.5 13.7 1.7 12.9 3.5C12.8 3.5 12.6 3.5 12.5 3.5C12.4 3.5 12.2 3.5 12.1 3.5C11.3 1.7 9.6 0.5 7.5 0.5C4.7 0.5 2.5 2.7 2.5 5.5C2.5 7 3.2 8.3 4.2 9.3C2 10.4 0.5 12.7 0.5 15.4V19.5H5.5V22.5H19.5V19.5H24.5V15.4ZM17.5 2.5C19.2 2.5 20.5 3.8 20.5 5.5C20.5 7.1 19.2 8.5 17.5 8.5C17.5 6.6 16.4 5 14.8 4.1C15.3 3.1 16.3 2.5 17.5 2.5ZM15.5 8.5C15.5 10.2 14.2 11.5 12.5 11.5C10.8 11.5 9.5 10.2 9.5 8.5C9.5 6.8 10.8 5.5 12.5 5.5C14.2 5.5 15.5 6.8 15.5 8.5ZM7.5 2.5C8.7 2.5 9.7 3.1 10.2 4.1C8.6 5 7.5 6.6 7.5 8.5C5.8 8.5 4.5 7.2 4.5 5.5C4.5 3.8 5.8 2.5 7.5 2.5ZM5.6 17.5H2.5V15.4C2.5 12.6 4.6 10.5 7.5 10.5C7.6 10.5 7.7 10.5 7.8 10.5C8.1 11.2 8.6 11.8 9.1 12.3C7.2 13.3 5.9 15.2 5.6 17.5ZM17.5 20.5H7.5V18.4C7.5 15.6 9.7 13.5 12.5 13.5C15.4 13.5 17.5 15.6 17.5 18.4V20.5ZM22.5 17.5H19.4C19.1 15.2 17.7 13.3 15.7 12.3C16.3 11.8 16.7 11.2 17 10.5C17.1 10.5 17.2 10.5 17.4 10.5C20.3 10.5 22.4 12.6 22.4 15.4V17.5H22.5Z" fill="currentColor"/>
</svg>
