<svg width="25" height="25" viewBox="0 0 25 25" fill="none" xmlns="http://www.w3.org/2000/svg">
<path d="M24.2935 12.5315L13.0691 0.730408C12.9278 0.582557 12.7334 0.5 12.5301 0.5C12.3267 0.5 12.1315 0.583307 11.9902 0.730408L0.708304 12.5315C0.421939 12.8302 0.432406 13.3053 0.729988 13.5928C1.02832 13.8794 1.50086 13.8712 1.78722 13.571L2.79212 12.5195V23.7495C2.79212 24.1638 3.12709 24.5 3.53981 24.5H8.76318C9.17516 24.5 9.50938 24.166 9.51087 23.7517L9.53405 16.2548H15.4924V23.7495C15.4924 24.1638 15.8274 24.5 16.2401 24.5H21.4612C21.8739 24.5 22.2089 24.1638 22.2089 23.7495V12.5158L23.2131 13.5717C23.3604 13.7248 23.5563 13.8029 23.7529 13.8029C23.9391 13.8029 24.126 13.7338 24.2703 13.5935C24.5679 13.3068 24.5776 12.8317 24.292 12.533L24.2935 12.5315ZM20.7143 11.1581V22.9982H16.9885V15.5036C16.9885 15.0893 16.6536 14.753 16.2408 14.753H8.7901C8.37812 14.753 8.0439 15.087 8.04241 15.5013L8.01923 22.9982H4.289V11.1573C4.289 11.0958 4.27928 11.0357 4.26507 10.978L12.5308 2.33201L20.7419 10.9682C20.7262 11.029 20.715 11.092 20.715 11.1573L20.7143 11.1581Z" fill="currentColor"/>
</svg>
