<svg width="25" height="24" viewBox="0 0 25 24" fill="none" xmlns="http://www.w3.org/2000/svg">
<path d="M7.5 17V21C7.5 21.2652 7.39464 21.5196 7.20711 21.7071C7.01957 21.8946 6.76522 22 6.5 22H3.5C3.23478 22 2.98043 21.8946 2.79289 21.7071C2.60536 21.5196 2.5 21.2652 2.5 21V17C2.5 16.7348 2.60536 16.4804 2.79289 16.2929C2.98043 16.1054 3.23478 16 3.5 16H6.5C6.76522 16 7.01957 16.1054 7.20711 16.2929C7.39464 16.4804 7.5 16.7348 7.5 17ZM14.5 14H11.5C11.2348 14 10.9804 14.1054 10.7929 14.2929C10.6054 14.4804 10.5 14.7348 10.5 15V21C10.5 21.2652 10.6054 21.5196 10.7929 21.7071C10.9804 21.8946 11.2348 22 11.5 22H14.5C14.7652 22 15.0196 21.8946 15.2071 21.7071C15.3946 21.5196 15.5 21.2652 15.5 21V15C15.5 14.7348 15.3946 14.4804 15.2071 14.2929C15.0196 14.1054 14.7652 14 14.5 14ZM22.5 10H19.5C19.2348 10 18.9804 10.1054 18.7929 10.2929C18.6054 10.4804 18.5 10.7348 18.5 11V21C18.5 21.2652 18.6054 21.5196 18.7929 21.7071C18.9804 21.8946 19.2348 22 19.5 22H22.5C22.7652 22 23.0196 21.8946 23.2071 21.7071C23.3946 21.5196 23.5 21.2652 23.5 21V11C23.5 10.7348 23.3946 10.4804 23.2071 10.2929C23.0196 10.1054 22.7652 10 22.5 10ZM20.5 7.24C20.5315 7.37132 20.5886 7.49515 20.668 7.60441C20.7473 7.71368 20.8475 7.80624 20.9626 7.87681C21.0777 7.94738 21.2057 7.99459 21.339 8.01572C21.4724 8.03686 21.6087 8.03152 21.74 8C21.8713 7.96848 21.9951 7.91141 22.1044 7.83204C22.2137 7.75266 22.3062 7.65254 22.3768 7.5374C22.4474 7.42226 22.4946 7.29434 22.5157 7.16095C22.5369 7.02757 22.5315 6.89132 22.5 6.76L21.5 2.76V2.67C21.4681 2.58619 21.4279 2.50578 21.38 2.43L21.3 2.35C21.2442 2.28546 21.1803 2.22833 21.11 2.18H21.04C20.941 2.0962 20.825 2.03479 20.7 2H20.56H16.5C16.2348 2 15.9804 2.10536 15.7929 2.29289C15.6054 2.48043 15.5 2.73478 15.5 3C15.5 3.26522 15.6054 3.51957 15.7929 3.70711C15.9804 3.89464 16.2348 4 16.5 4H18.63C14.3 9.69 6.4 11 3.5 11C3.23478 11 2.98043 11.1054 2.79289 11.2929C2.60536 11.4804 2.5 11.7348 2.5 12C2.5 12.2652 2.60536 12.5196 2.79289 12.7071C2.98043 12.8946 3.23478 13 3.5 13C6.66 13 15.21 11.56 20.07 5.39L20.5 7.24Z" fill="currentColor"/>
</svg>
