<svg width="25" height="24" viewBox="0 0 25 24" fill="none" xmlns="http://www.w3.org/2000/svg">
<path d="M21.3125 1.50004C21.3125 1.18954 21.0605 0.937535 20.75 0.937535H5.9C5.879 0.936785 5.85425 0.936035 5.8295 0.936035C4.67375 0.936035 3.73175 1.85103 3.6875 2.99553V2.99928V21.291C3.77225 22.2893 4.60325 23.0663 5.6165 23.0663C5.66375 23.0663 5.71025 23.0648 5.75675 23.061H5.75075H20.7507C21.0612 23.061 21.3132 22.809 21.3132 22.4985C21.3132 22.188 21.0612 21.936 20.7507 21.936H5.90075C5.8835 21.9368 5.86325 21.9375 5.843 21.9375C5.30525 21.9375 4.8635 21.5273 4.81325 21.0023V20.9978V20.0805C4.81325 19.7363 5.25125 19.4348 5.74925 19.4348L20.7507 19.4775H20.7515C20.9067 19.4775 21.047 19.4145 21.1483 19.3125C21.161 19.2998 21.167 19.2818 21.1782 19.2675C21.2135 19.2293 21.2435 19.185 21.2668 19.1378L21.2682 19.1348C21.2803 19.098 21.29 19.056 21.2938 19.0118V19.0095C21.302 18.9833 21.3088 18.9518 21.3125 18.9188V18.9165V18.915V1.50004ZM20.1875 18.3533L8.5625 18.3203V2.06254H20.1875V18.3533ZM4.8125 18.5145V3.00003C4.86275 2.47128 5.30525 2.06104 5.843 2.06104C5.86325 2.06104 5.8835 2.06179 5.903 2.06254H5.9H7.4375V18.3165L5.75 18.312C5.41025 18.3135 5.08775 18.3878 4.79825 18.5205L4.8125 18.5145ZM11 5.81253H17.75C18.0605 5.81253 18.3125 5.56053 18.3125 5.25003C18.3125 4.93953 18.0605 4.68753 17.75 4.68753H11C10.6895 4.68753 10.4375 4.93953 10.4375 5.25003C10.4375 5.56053 10.6895 5.81253 11 5.81253ZM17.75 7.68753H11C10.6895 7.68753 10.4375 7.93953 10.4375 8.25003C10.4375 8.56053 10.6895 8.81253 11 8.81253H17.75C18.0605 8.81253 18.3125 8.56053 18.3125 8.25003C18.3125 7.93953 18.0605 7.68753 17.75 7.68753Z" fill="currentColor"/>
</svg>
