<svg width="25" height="25" viewBox="0 0 25 25" fill="none" xmlns="http://www.w3.org/2000/svg">
<path fill-rule="evenodd" clip-rule="evenodd" d="M16.8636 9.22727C16.8636 10.3846 16.4039 11.4945 15.5855 12.3128C14.7672 13.1312 13.6573 13.5909 12.5 13.5909C11.3427 13.5909 10.2328 13.1312 9.41443 12.3128C8.59609 11.4945 8.13635 10.3846 8.13635 9.22727C8.13635 8.06996 8.59609 6.96005 9.41443 6.14171C10.2328 5.32337 11.3427 4.86363 12.5 4.86363C13.6573 4.86363 14.7672 5.32337 15.5855 6.14171C16.4039 6.96005 16.8636 8.06996 16.8636 9.22727ZM14.6818 9.22727C14.6818 9.80592 14.4519 10.3609 14.0428 10.77C13.6336 11.1792 13.0786 11.4091 12.5 11.4091C11.9213 11.4091 11.3664 11.1792 10.9572 10.77C10.548 10.3609 10.3182 9.80592 10.3182 9.22727C10.3182 8.64861 10.548 8.09366 10.9572 7.68449C11.3664 7.27532 11.9213 7.04545 12.5 7.04545C13.0786 7.04545 13.6336 7.27532 14.0428 7.68449C14.4519 8.09366 14.6818 8.64861 14.6818 9.22727Z" fill="currentColor"/>
<path fill-rule="evenodd" clip-rule="evenodd" d="M12.5 0.5C5.87273 0.5 0.5 5.87273 0.5 12.5C0.5 19.1273 5.87273 24.5 12.5 24.5C19.1273 24.5 24.5 19.1273 24.5 12.5C24.5 5.87273 19.1273 0.5 12.5 0.5ZM2.68182 12.5C2.68182 14.78 3.45964 16.8789 4.76327 18.5458C5.67903 17.3438 6.86017 16.3696 8.21452 15.6993C9.56886 15.0291 11.0598 14.6808 12.5709 14.6818C14.0626 14.6801 15.535 15.019 16.8758 15.6728C18.2166 16.3265 19.3904 17.2779 20.3076 18.4542C21.2529 17.2145 21.8893 15.7675 22.1642 14.233C22.4392 12.6985 22.3448 11.1206 21.8889 9.6298C21.433 8.13902 20.6286 6.77823 19.5423 5.66004C18.4561 4.54185 17.1192 3.69839 15.6422 3.19946C14.1653 2.70054 12.5908 2.56048 11.0489 2.79088C9.50711 3.02128 8.04232 3.61552 6.77575 4.52442C5.50918 5.43333 4.47725 6.63077 3.76534 8.01767C3.05343 9.40457 2.68202 10.9411 2.68182 12.5ZM12.5 22.3182C10.2461 22.3218 8.06016 21.5464 6.31236 20.1233C7.01579 19.1159 7.95221 18.2935 9.0419 17.726C10.1316 17.1584 11.3423 16.8626 12.5709 16.8636C13.7842 16.8626 14.9802 17.151 16.0596 17.7051C17.139 18.2591 18.0706 19.0627 18.7771 20.0491C17.0158 21.5185 14.7938 22.3218 12.5 22.3182Z" fill="currentColor"/>
</svg>
